<svg width="380" height="287" viewBox="0 0 380 287" fill="none" xmlns="http://www.w3.org/2000/svg">
<path d="M13.872 38.1773C43.8487 54.7696 112.762 77.9987 148.601 38.1773C193.4 -11.5995 280.676 -1.64412 320.497 10.6342" stroke="white" stroke-width="0.66369"/>
<path d="M14.6681 56.8314C45.6323 71.4987 115.874 90.3321 149.129 48.3281C190.697 -4.17684 278.426 0.250371 318.943 9.99087" stroke="white" stroke-width="0.66369"/>
<path d="M10.9313 75.74C41.8954 90.4072 112.137 109.241 145.392 67.2367C186.96 14.7317 274.69 19.1589 315.207 28.8994" stroke="white" stroke-width="0.66369"/>
<path d="M6.94917 94.987C37.9133 109.654 108.155 128.488 141.41 86.4837C182.978 33.9787 270.707 38.4059 311.224 48.1464" stroke="white" stroke-width="0.66369"/>
<path d="M6.94917 94.987C37.9133 109.654 108.155 128.488 141.41 86.4837C182.978 33.9787 270.707 38.4059 311.224 48.1464" stroke="white" stroke-width="0.66369"/>
<path d="M14.9134 160.692C49.5579 175.127 128.26 193.425 165.915 151.143C212.983 98.2902 311.428 102.04 356.834 111.471" stroke="white" stroke-width="0.66369"/>
<path d="M6.94917 190.284C41.5936 204.719 120.296 223.017 157.951 180.735C205.019 127.882 303.464 131.632 348.87 141.063" stroke="white" stroke-width="0.66369"/>
<path d="M8.27654 211.522C42.921 225.957 121.623 244.255 159.278 201.973C206.346 149.12 304.791 152.87 350.197 162.301" stroke="white" stroke-width="0.66369"/>
<path d="M18.2319 232.76C52.8763 247.195 131.579 265.493 169.233 223.211C216.302 170.358 314.746 174.108 360.152 183.539" stroke="white" stroke-width="0.66369"/>
<path d="M34.8242 264.618C69.4686 279.052 148.171 297.35 185.826 255.068C232.894 202.215 331.339 205.965 376.745 215.396" stroke="white" stroke-width="0.66369"/>
<path d="M30.1783 140.782C61.1424 155.449 131.384 174.282 164.639 132.278C206.207 79.7734 293.937 84.2006 334.454 93.9411" stroke="white" stroke-width="0.66369"/>
<path d="M2.96702 116.889C37.8209 131.31 117.005 149.578 154.91 107.28C202.291 54.4073 301.346 58.1183 347.03 67.532" stroke="white" stroke-width="0.66369"/>
</svg>
