<svg width="47" height="47" viewBox="0 0 47 47" fill="none" xmlns="http://www.w3.org/2000/svg">
<path fill-rule="evenodd" clip-rule="evenodd" d="M23.7604 46.5235C36.4062 46.5235 46.6577 36.272 46.6577 23.6262C46.6577 10.9804 36.4062 0.728882 23.7604 0.728882C11.1146 0.728882 0.863075 10.9804 0.863075 23.6262C0.863075 36.272 11.1146 46.5235 23.7604 46.5235Z" fill="#5454D4" fill-opacity="0.1"/>
<path d="M21.4375 24.1792C20.8534 24.4712 20.3667 24.9048 20.0039 25.4446C19.8004 25.7544 19.8004 26.1437 20.0039 26.4534C20.3667 26.9932 20.8534 27.4269 21.4375 27.7189" stroke="#5454D4" stroke-width="1.32738" stroke-linecap="round" stroke-linejoin="round"/>
<path d="M26.9328 24.1792C27.5169 24.4712 28.0036 24.9048 28.3664 25.4446C28.5699 25.7544 28.5699 26.1437 28.3664 26.4534C28.0036 26.9932 27.5169 27.4269 26.9328 27.7189" stroke="#5454D4" stroke-width="1.32738" stroke-linecap="round" stroke-linejoin="round"/>
<path d="M21.4375 32.1435H26.747C31.1716 32.1435 32.9414 30.3736 32.9414 25.949V20.6395C32.9414 16.2149 31.1716 14.4451 26.747 14.4451H21.4375C17.0129 14.4451 15.243 16.2149 15.243 20.6395V25.949C15.243 30.3736 17.0129 32.1435 21.4375 32.1435Z" stroke="#5454D4" stroke-width="1.32738" stroke-linecap="round" stroke-linejoin="round"/>
<path d="M15.4466 19.7635L32.4547 19.7546" stroke="#5454D4" stroke-width="1.32738" stroke-linecap="round" stroke-linejoin="round"/>
</svg>
