<svg width="47" height="47" viewBox="0 0 47 47" fill="none" xmlns="http://www.w3.org/2000/svg">
<path fill-rule="evenodd" clip-rule="evenodd" d="M23.189 46.5235C35.8348 46.5235 46.0863 36.272 46.0863 23.6262C46.0863 10.9804 35.8348 0.728882 23.189 0.728882C10.5432 0.728882 0.291687 10.9804 0.291687 23.6262C0.291687 36.272 10.5432 46.5235 23.189 46.5235Z" fill="#FEDC5A" fill-opacity="0.1"/>
<path d="M20.8661 24.1792C20.2821 24.4712 19.7954 24.9048 19.4326 25.4446C19.229 25.7544 19.229 26.1437 19.4326 26.4534C19.7954 26.9932 20.2821 27.4269 20.8661 27.7189" stroke="#FEDC5A" stroke-width="1.32738" stroke-linecap="round" stroke-linejoin="round"/>
<path d="M26.3614 24.1792C26.9454 24.4712 27.4321 24.9048 27.795 25.4446C27.9985 25.7544 27.9985 26.1437 27.795 26.4534C27.4321 26.9932 26.9454 27.4269 26.3614 27.7189" stroke="#FEDC5A" stroke-width="1.32738" stroke-linecap="round" stroke-linejoin="round"/>
<path d="M20.8661 32.1435H26.1756C30.6002 32.1435 32.37 30.3736 32.37 25.949V20.6395C32.37 16.2149 30.6002 14.4451 26.1756 14.4451H20.8661C16.4415 14.4451 14.6716 16.2149 14.6716 20.6395V25.949C14.6716 30.3736 16.4415 32.1435 20.8661 32.1435Z" stroke="#FEDC5A" stroke-width="1.32738" stroke-linecap="round" stroke-linejoin="round"/>
<path d="M14.8752 19.7635L31.8834 19.7546" stroke="#FEDC5A" stroke-width="1.32738" stroke-linecap="round" stroke-linejoin="round"/>
</svg>
